<?xml version="1.0" encoding="UTF-8"?>
<svg width="220px" height="360px" viewBox="0 0 220 360" version="1.1" xmlns="http://www.w3.org/2000/svg" xmlns:xlink="http://www.w3.org/1999/xlink">
    <!-- Generator: Sketch 44.1 (41455) - http://www.bohemiancoding.com/sketch -->
    <title>logo</title>
    <desc>Created with Sketch.</desc>
    <defs>
        <linearGradient x1="36.5511936%" y1="-77.8764647%" x2="62.0496298%" y2="495.526054%" id="linearGradient-1">
            <stop stop-color="#E54A4A" offset="0%"></stop>
            <stop stop-color="#F58961" offset="100%"></stop>
        </linearGradient>
        <linearGradient x1="0%" y1="-32.9923095%" x2="178.298341%" y2="232.460433%" id="linearGradient-2">
            <stop stop-color="#E54A4A" offset="0%"></stop>
            <stop stop-color="#F58961" offset="100%"></stop>
        </linearGradient>
    </defs>
    <g id="Page-1" stroke="none" stroke-width="1" fill="none" fill-rule="evenodd">
        <g id="OnePage" transform="translate(-490.000000, -120.000000)">
            <g id="logo" transform="translate(490.000000, 120.000000)">
                <path d="M7.2352,186.116126 C8.63386667,186.116126 9.85253333,186.64377 10.7618667,187.642954 C11.6205333,188.592712 12.0712,189.835013 12.0712,191.23761 L12.0712,230.83761 C12.0712,232.189447 11.6285333,233.410375 10.7872,234.372156 C9.8752,235.410078 8.64986667,235.957759 7.2352,235.957759 C5.86986667,235.957759 4.6592,235.419429 3.73253333,234.400208 C2.86053333,233.438427 2.3992,232.204141 2.3992,230.83761 L2.3992,191.23761 C2.3992,189.817647 2.86853333,188.568668 3.7592,187.620245 C4.6832,186.635755 5.88453333,186.116126 7.2352,186.116126 Z M60.6778667,186.116126 C62.0445333,186.116126 63.2565333,186.654456 64.1805333,187.673677 C65.0552,188.63813 65.5165333,189.87108 65.5165333,191.23761 L65.5165333,230.83761 C65.5165333,232.216163 65.0392,233.457128 64.1312,234.424252 C63.1885333,235.427443 61.9952,234.621952 60.6778667,234.621952 C59.3138667,234.621952 58.1045333,235.419429 57.1778667,234.400208 C56.3032,233.435755 55.8418667,232.204141 55.8418667,230.83761 L55.8418667,211.53787 L46.9258667,231.561618 L46.8618667,231.667147 C45.8912,233.302174 44.4072,234.202508 42.6872,234.202508 C40.6832,234.202508 39.1018667,233.117833 38.2378667,231.147518 L29.5325333,211.919911 L29.5325333,230.83761 C29.5325333,232.204141 29.0712,233.435755 28.1992,234.400208 C27.2712,235.419429 26.0605333,235.957759 24.6965333,235.957759 C23.3285333,235.957759 22.1192,235.419429 21.1938667,234.400208 C20.3205333,233.438427 19.8578667,232.204141 19.8578667,230.83761 L19.8578667,191.23761 C19.8578667,189.87108 20.3205333,188.63813 21.1952,187.673677 C22.1192,186.654456 23.3285333,186.116126 24.6965333,186.116126 C26.5378667,186.116126 28.0578667,187.095273 28.9805333,188.874568 L29.0285333,188.974753 L42.8725333,219.542026 L56.3938667,188.874568 C57.3165333,187.095273 58.8392,186.116126 60.6778667,186.116126 Z M104.420533,203.344698 C104.420533,206.514568 103.761867,209.394568 102.461867,211.905885 C101.1392,214.465291 99.2512,216.497054 96.8578667,217.939725 C94.4725333,219.377054 91.7458667,220.10774 88.7565333,220.10774 L82.9778667,220.10774 L82.9778667,230.835607 C82.9778667,232.190115 82.5325333,233.411043 81.6938667,234.37416 C80.7818667,235.410746 79.5525333,235.957091 78.1418667,235.957091 C76.7738667,235.957091 75.5658667,235.420096 74.6392,234.400876 C73.7632,233.437759 73.3032,232.203473 73.3032,230.835607 L73.3032,191.238278 C73.3032,189.818315 73.7712,188.568 74.6618667,187.622249 C75.5872,186.635087 76.7898667,186.11813 78.1418667,186.11813 L88.7565333,186.11813 C91.7565333,186.11813 94.4872,186.870189 96.8805333,188.358278 C99.2738667,189.845032 101.153867,191.93557 102.4752,194.575124 C103.7632,197.159911 104.420533,200.108037 104.420533,203.344698 Z M94.9565333,203.344698 C94.9565333,201.075161 94.3605333,199.283844 93.1312,197.866553 C91.9618667,196.521395 90.5712,195.893566 88.7565333,195.893566 L82.9778667,195.893566 L82.9778667,210.329633 L88.7565333,210.329633 C90.5712,210.329633 92.0138667,209.717833 93.1725333,208.456831 C94.3738667,207.14774 94.9565333,205.47531 94.9565333,203.344698 Z M126.162133,189.537662 L141.1368,228.921262 C141.391467,229.657291 141.5168,230.305158 141.5168,230.894249 C141.5168,232.223377 141.055467,233.434954 140.1808,234.400742 C139.255467,235.419963 138.0448,235.956957 136.6808,235.956957 C135.719467,235.956957 134.810133,235.667087 133.982133,235.090019 C133.1488,234.51295 132.542133,233.714137 132.1808,232.717625 L129.703467,225.89833 L113.5528,225.89833 L110.995467,232.819147 C110.5968,233.758219 110.003467,234.514286 109.2328,235.069981 C108.414133,235.657737 107.506133,235.956957 106.534133,235.956957 C105.138133,235.956957 103.922133,235.389239 103.011467,234.316586 C102.1888,233.345455 101.750133,232.141892 101.750133,230.835473 C101.750133,230.210315 101.878133,229.526382 102.134133,228.801039 L102.1488,228.751614 L117.066133,189.505603 C118.211467,186.553469 120.402133,186.11666 121.607467,186.11666 C123.755467,186.11666 125.4128,187.360297 126.162133,189.537662 Z M126.331467,216.705306 L121.6928,203.977737 L116.9568,216.705306 L126.331467,216.705306 Z M157.894,197.222694 C155.880667,198.611933 154.254,200.540839 153.055333,202.954642 C151.844667,205.400505 151.23,208.109521 151.23,211.006887 C151.23,213.941655 151.844667,216.660022 153.052667,219.083176 C154.251333,221.482286 155.880667,223.404512 157.894,224.793751 C159.872667,226.160282 161.979333,226.824178 164.331333,226.824178 C167.255333,226.824178 170.019333,225.716794 172.776667,223.440579 L172.820667,223.40184 C173.792667,222.645774 174.812667,222.261061 175.847333,222.261061 C177.142,222.261061 178.266,222.791377 179.11,223.791896 C179.872667,224.702917 180.260667,225.851711 180.260667,227.208891 C180.260667,228.539354 179.782,229.77364 178.87,230.772824 L178.714,230.930449 C174.516667,234.654679 169.678,236.544846 164.331333,236.544846 C160.146,236.544846 156.274,235.385365 152.81,233.101135 C149.388667,230.842286 146.659333,227.717833 144.696667,223.815941 C142.754,219.955458 141.766,215.643473 141.766,211.006887 C141.766,206.409039 142.754,202.127777 144.699333,198.281989 C146.659333,194.406813 149.386,191.286367 152.806,189.008816 C156.268667,186.699206 160.146,185.530375 164.331333,185.530375 C167.271333,185.530375 169.872667,185.972527 172.076667,186.846145 C174.246,187.710412 176.456667,189.127703 178.636667,191.061952 C179.318,191.635013 179.803333,192.278872 180.071333,192.977499 C180.306,193.590635 180.420667,194.282583 180.420667,195.038649 C180.420667,196.374456 179.940667,197.55531 179.032667,198.452972 C178.131333,199.343955 177.011333,199.811488 175.795333,199.811488 C174.615333,199.811488 173.492667,199.365328 172.552667,198.522434 C171.246,197.293492 170.014,196.43056 168.858,195.922954 C167.751333,195.438056 166.224667,195.190931 164.331333,195.190931 C161.979333,195.190931 159.872667,195.856163 157.894,197.222694 Z M218.118,187.58498 C218.940667,188.491993 219.375333,189.674182 219.375333,191.005981 C219.375333,192.335109 218.940667,193.514627 218.118,194.42164 C217.246,195.386093 216.082,195.893699 214.751333,195.893699 L205.418,195.893699 L205.418,230.83574 C205.418,232.203607 204.956667,233.435221 204.082,234.401009 C203.154,235.42023 201.946,235.957224 200.582,235.957224 C199.214,235.957224 198.003333,235.42023 197.076667,234.401009 C196.206,233.435221 195.743333,232.203607 195.743333,230.83574 L195.743333,195.893699 L186.358,195.893699 C185.027333,195.893699 183.863333,195.386093 182.987333,194.42164 C182.164667,193.514627 181.73,192.335109 181.73,191.005981 C181.73,189.674182 182.164667,188.491993 182.987333,187.58498 C183.863333,186.623199 185.027333,186.115592 186.358,186.115592 L214.751333,186.115592 C216.082,186.115592 217.246,186.623199 218.118,187.58498 Z" id="Combined-Shape" fill="url(#linearGradient-1)"></path>
                <path d="M208.680133,278.876438 C208.805467,278.928534 208.873467,279.07013 208.8268,279.197032 C208.720133,279.520297 208.617467,279.840891 208.516133,280.157477 C207.961467,281.886011 207.433467,283.518367 206.433467,285.105306 C206.3108,285.289647 206.224133,285.447273 206.133467,285.612913 C205.9228,285.994954 205.6828,286.429091 205.005467,287.274657 C204.313467,288.129573 203.557467,288.960445 202.7668,289.748571 L202.652133,289.864787 C201.3628,291.149833 200.508133,292.000742 198.357467,293.26308 C198.0108,293.462115 197.605467,293.735955 197.1748,294.025826 C196.404133,294.545455 195.605467,295.081113 194.925467,295.353618 C194.4428,295.54731 193.925467,295.843859 193.4228,296.12705 C192.881467,296.434286 192.321467,296.752208 191.7868,296.956586 C190.040133,297.636512 188.4428,298.409944 186.964133,299.145974 L186.133467,299.572096 C184.649467,300.369573 183.157467,301.292616 181.712133,302.186271 L180.6628,302.834137 C179.9748,303.261596 179.281467,303.733135 178.612133,304.191317 L178.013467,304.60141 C177.128133,305.202523 176.2508,305.821002 175.3708,306.442152 C174.7428,306.874954 174.1148,307.311763 173.4908,307.749907 L172.761467,308.261521 L172.4508,310.79154 C172.045467,314.173803 171.729467,318.123785 171.393467,322.306197 C170.917467,328.281262 170.425467,334.464712 169.620133,339.345751 C168.7428,344.666271 167.540133,351.953098 163.237467,356.684527 C161.393467,358.70961 158.660133,359.915844 155.917467,359.915844 C155.152133,359.915844 154.396133,359.821002 153.6748,359.632653 C153.393467,359.621967 153.092133,359.592579 152.805467,359.549833 C151.469467,359.345455 150.201467,358.407718 149.084133,357.580853 L148.740133,357.32705 C147.589467,356.476141 146.605467,355.347384 145.8108,353.97551 C145.125467,352.791985 144.608133,351.44282 144.232133,349.855881 C143.912133,348.510724 143.732133,347.05603 143.696133,345.534545 C143.6628,344.178701 143.7268,342.732022 143.893467,341.23859 C144.040133,339.954879 144.2748,338.619072 144.6308,337.032134 C144.9508,335.604156 145.349467,334.221596 145.805467,332.916512 C146.761467,330.251577 148.620133,326.011725 150.073467,323.523117 C152.600133,319.197774 154.352133,316.462041 156.3548,314.40757 C156.6468,314.103006 156.9228,313.8118 157.1828,313.535288 C158.6748,311.960371 159.756133,310.818256 161.6988,309.422338 C163.5268,308.142635 165.196133,307.114063 166.808133,306.283191 C167.141467,306.002672 167.477467,305.724824 167.813467,305.448312 L167.996133,303.882746 C164.193467,307.001855 160.404133,308.539369 156.4308,308.584787 L156.300133,308.584787 C153.813467,308.584787 151.5028,307.773952 149.7588,306.292542 C148.6748,307.773952 147.6308,309.042968 146.576133,310.165046 C145.881467,310.897069 144.9388,311.840148 143.808133,312.650983 C142.688133,313.463154 141.500133,314.024193 140.2868,314.314063 C139.029467,314.619963 137.636133,314.62397 136.308133,314.323414 C135.0948,314.064267 133.8868,313.568683 132.717467,312.856698 C132.376133,312.648312 132.040133,312.486679 131.717467,312.329054 C131.108133,312.035176 130.529467,311.754657 129.9828,311.213655 C129.461467,310.897069 128.9908,310.549759 128.584133,310.178404 C127.7068,311.152208 126.7268,311.757328 125.608133,312.447941 C125.3268,312.62026 125.040133,312.797922 124.7428,312.987607 C122.3388,314.526456 119.1668,316.293729 115.9588,316.293729 C114.5708,316.293729 113.264133,315.957106 112.0788,315.291874 C108.425467,313.246753 107.761467,309.801707 107.896133,307.130093 C107.688133,307.194212 107.3788,307.286382 106.928133,307.417291 C106.521467,307.532171 106.037467,307.675102 105.824133,307.743228 C105.696133,309.084378 105.3308,310.406827 104.7428,311.679852 C104.341467,312.522746 103.428133,314.164453 102.829467,314.95525 C101.7148,317.4118 100.217467,318.59666 97.8548,319.921781 C95.6641333,321.149388 92.8414667,321.880074 90.3054667,321.880074 C88.2294667,321.880074 85.3361333,321.401855 83.3414667,319.126976 C82.0534667,317.654917 81.5734667,315.776772 81.9588,313.698256 C82.4908,310.847644 84.5921333,308.017069 87.1908,306.658553 C88.6414667,305.899814 90.3788,305.309388 92.2121333,304.954063 C93.3134667,304.738998 94.6028,304.581373 95.8468,304.426419 C96.8761333,304.296846 97.9361333,304.165937 98.8708,304.004304 C98.7668,303.739814 98.6721333,303.486011 98.5814667,303.241558 C98.2174667,302.277106 97.9041333,301.444898 97.3214667,300.496475 C96.0868,298.486085 94.2761333,296.549165 92.5268,294.679035 C91.5628,293.650464 90.6521333,292.673989 89.8294667,291.689499 C86.4828,293.546271 82.6228,294.880742 79.2241333,295.989462 C79.5628,297.218404 79.7948,298.531503 79.9068,299.900705 C79.9881333,300.94397 80.0054667,302.059369 79.9588,303.21885 C79.9094667,304.202004 79.8108,305.210538 79.6361333,306.499592 C79.3134667,308.861299 78.8214667,310.965195 78.1308,312.923488 C77.3521333,315.16898 76.3294667,317.16334 75.0948,318.849128 C73.7614667,320.693878 72.0708,322.268794 70.2068,323.412245 C68.3814667,324.542338 66.2294667,325.337143 63.9908,325.709833 C63.1441333,325.84475 62.2948,325.92757 61.4588,325.95295 C60.5321333,326.030427 59.8161333,326.065158 59.1521333,326.065158 C56.6388,326.065158 54.7014667,325.514805 52.8654667,324.284527 C46.4668,319.993915 44.9694667,311.389981 46.2868,305.21321 C47.2868,300.537885 49.2641333,296.356809 52.0054667,293.12282 C56.0401333,288.360668 59.9641333,285.852022 63.9961333,285.45128 C65.5241333,284.494842 67.2068,284.046011 68.8494667,284.186271 C72.3494667,284.481484 74.9254667,286.594731 76.5134667,290.4659 L76.6094667,290.580779 C76.7534667,290.770464 76.8908,290.96282 77.0241333,291.157848 C79.3521333,290.363043 81.4614667,289.550872 83.4641333,288.679926 L84.0268,288.436809 C84.7454667,288.128237 85.4854667,287.80898 86.2201333,287.465677 C85.0374667,285.626271 84.9174667,283.537069 85.8988,281.712356 C86.9828,279.696623 89.0188,278.446308 91.2121333,278.446308 C93.0374667,278.446308 94.6908,279.279852 95.8734667,280.797328 C97.9361333,283.448905 96.5428,286.426419 94.7214667,288.173655 C94.5948,288.297885 94.4614667,288.416772 94.3294667,288.534323 C95.9228,289.781967 97.4068,291.095065 98.7428,292.449573 C100.933467,294.657662 102.605467,296.851058 103.857467,299.155325 L103.909467,299.254174 C104.3548,300.102412 105.160133,301.629239 105.532133,302.599035 C106.196133,302.453432 106.912133,302.172913 107.6028,301.901744 C108.1628,301.681336 108.696133,301.474286 109.196133,301.336698 C109.264133,301.169722 109.404133,300.79436 109.497467,300.531206 C109.669467,300.069017 109.7428,299.882004 109.7868,299.789833 C110.2668,298.355176 110.737467,296.919184 111.209467,295.481855 C111.8628,293.488831 112.5188,291.497143 113.188133,289.510798 C113.5508,288.442152 113.9388,287.380186 114.3108,286.351614 C115.2748,283.709388 116.1828,281.216772 116.753467,278.491725 C117.0788,276.931503 118.3108,276.232876 119.3868,276.232876 C120.0868,276.232876 120.712133,276.512059 121.108133,277.004972 C121.3988,277.360297 121.701467,277.998813 121.493467,279.002004 L121.373467,279.564378 C121.048133,281.117922 120.2508,283.077551 119.480133,284.971725 C119.000133,286.1459 118.540133,287.288015 118.196133,288.293878 C118.5708,287.513766 118.9428,286.745677 119.1468,286.328905 C119.608133,285.405863 120.2748,284.432059 120.6468,283.522375 C121.193467,282.186568 121.497467,281.517328 122.284133,279.497588 C122.3308,279.378701 122.485467,279.342635 122.605467,279.392059 C122.721467,279.438813 122.7868,279.565714 122.761467,279.688609 C122.149467,282.412319 121.297467,284.978404 120.540133,287.137069 C119.685467,289.534842 118.721467,291.949981 117.672133,294.321039 L116.005467,298.097365 C115.425467,299.415807 115.048133,300.683488 114.772133,301.609202 C114.5548,302.341224 114.396133,302.868868 114.224133,303.16141 L113.841467,304.303525 C113.209467,306.116215 112.341467,308.598145 113.7868,310.032801 C114.4428,310.686011 115.149467,311.005269 115.945467,311.005269 C116.8708,311.005269 117.813467,310.607199 118.953467,310.08757 C123.333467,308.091874 126.024133,305.329425 127.4148,301.398145 C130.169467,293.603711 131.920133,285.377811 133.612133,277.421744 C134.2508,274.4282 134.912133,271.3318 135.609467,268.303525 C136.040133,266.46679 136.469467,264.485788 136.920133,262.254991 C134.000133,263.029759 131.3028,263.720371 128.688133,264.365566 C128.4748,264.418998 128.2668,264.444378 128.0628,264.444378 C126.6308,264.444378 125.8188,263.14731 125.672133,261.941076 C125.516133,260.631985 126.0788,259.045046 127.688133,258.646976 C128.297467,258.497365 128.901467,258.342412 129.508133,258.187458 L130.253467,257.999109 C133.272133,257.154879 134.860133,256.551095 136.8708,255.789685 L138.2748,255.262041 L138.688133,253.060631 C139.6988,247.639926 140.745467,242.033544 142.053467,236.5741 C142.321467,235.45603 143.128133,234.788126 144.212133,234.788126 C145.089467,234.788126 145.9828,235.231614 146.545467,235.944935 C147.0708,236.616846 147.248133,237.454397 147.045467,238.307978 C146.393467,241.026345 145.8708,243.807495 145.3628,246.497811 C145.105467,247.864341 144.8468,249.229536 144.573467,250.598738 C144.445467,251.210538 144.324133,251.822338 144.1988,252.431466 L144.040133,253.20757 C144.617467,253.027236 145.292133,252.845566 145.948133,252.667904 C146.688133,252.467532 147.384133,252.280519 147.945467,252.096178 C149.540133,251.577885 150.993467,251.247941 152.396133,250.927347 C153.7508,250.620111 155.152133,250.299518 156.680133,249.813284 C157.5348,249.543451 158.292133,249.298998 159.0108,249.067904 C160.9228,248.452096 162.576133,247.920445 165.1748,247.137662 C165.305467,247.097588 165.4428,247.16705 165.4908,247.292616 C165.540133,247.422189 165.4828,247.565121 165.360133,247.623896 C163.232133,248.62308 161.636133,249.193469 159.784133,249.852022 C159.0268,250.120519 158.221467,250.407718 157.3268,250.74167 C156.9908,250.868571 156.6468,251.043562 156.3028,251.233247 C156.941467,251.030204 157.576133,250.82449 158.2068,250.621447 C160.589467,249.852022 163.0548,249.054545 165.341467,248.464119 C165.4428,248.445417 165.5348,248.434731 165.6228,248.434731 C166.7668,248.434731 167.772133,249.813284 167.964133,251.050241 C168.157467,252.304564 167.557467,253.279703 166.360133,253.659072 C157.945467,256.32 150.136133,258.640297 142.493467,260.750872 C140.797467,268.903302 139.0788,276.922152 137.024133,286.441113 C135.792133,292.136994 134.417467,297.203711 132.824133,301.932468 C132.704133,302.282449 132.6828,302.420037 132.660133,302.544267 C132.628133,302.727273 132.600133,302.862189 132.428133,303.254917 C132.436133,303.543451 132.396133,303.834657 132.316133,304.119184 C132.2428,304.372987 132.3268,304.681558 132.5628,305.035547 C133.253467,306.068126 135.000133,307.104712 135.693467,307.180853 C138.1148,307.454694 140.393467,306.748052 142.201467,305.165121 C143.993467,303.59154 145.4428,301.586494 146.633467,299.033766 C146.904133,298.560891 146.8268,298.689128 147.084133,298.003859 C147.961467,295.902635 148.612133,293.649128 149.133467,291.717551 C149.5948,290.003711 150.073467,288.293878 150.553467,286.58538 C151.016133,284.939666 151.477467,283.293952 151.925467,281.641558 C152.089467,281.024416 152.2668,280.403265 152.441467,279.778108 C153.1628,277.229388 153.9068,274.59384 154.1308,271.981002 C154.269467,270.359332 155.5348,269.633989 156.7268,269.633989 C157.5348,269.633989 158.281467,269.945232 158.781467,270.492913 C159.248133,271.000519 159.461467,271.669759 159.393467,272.429833 C159.089467,276.020482 158.0348,279.635176 157.016133,283.133655 C156.7588,284.013952 156.5028,284.88757 156.264133,285.754508 C156.125467,286.251429 155.9908,286.753692 155.860133,287.259963 C155.617467,288.392727 155.381467,289.458701 155.136133,290.496623 C154.612133,292.700705 153.985467,294.91013 153.376133,297.048757 L153.2428,297.518961 C152.928133,298.611651 152.608133,299.741744 152.261467,300.846456 L152.201467,301.032134 C152.240133,301.126976 152.292133,301.232505 152.3548,301.351391 L152.4228,301.476957 C152.5868,301.800223 152.628133,301.876364 152.997467,302.249054 C153.9228,303.173432 155.329467,303.36846 156.3468,303.36846 C157.6908,303.36846 159.224133,303.030501 160.453467,302.465455 C163.393467,301.113618 166.172133,298.9082 168.945467,295.736994 C170.045467,286.068423 170.972133,276.017811 171.7068,265.858998 C172.360133,256.795547 173.100133,246.55525 177.264133,238.102263 C180.097467,232.35295 183.396133,229.533061 187.3548,229.476957 L187.4668,229.476957 C188.5868,229.476957 189.553467,229.712059 190.3868,230.132839 C190.404133,230.056698 190.453467,229.993915 190.524133,229.957848 L190.524133,229.961855 C190.5788,229.937811 190.6308,229.925788 190.685467,229.927124 L190.8628,229.932468 C190.956133,229.939147 191.0428,229.948497 191.128133,229.961855 C191.2948,229.981892 191.464133,230.015288 191.628133,230.056698 C191.956133,230.139518 192.2788,230.255733 192.592133,230.4 C193.1908,230.685863 193.7508,231.086605 194.264133,231.594212 C195.128133,232.4518 195.821467,233.628646 196.3308,235.088683 C197.060133,237.303451 197.316133,239.798738 197.1388,242.948571 C196.797467,248.49885 195.3108,253.708497 193.901467,258.072579 C193.076133,260.51577 192.172133,262.938924 191.224133,265.27525 C190.125467,267.898776 189.177467,270.094842 188.117467,272.28423 L187.9388,272.654249 C184.781467,281.454545 180.557467,289.303748 175.3868,295.96141 C174.948133,296.526456 174.497467,297.098182 174.032133,297.664564 C173.904133,298.778627 173.772133,299.894026 173.6388,301.006753 C176.045467,299.303599 178.485467,297.735362 180.901467,296.342115 C182.573467,295.378998 184.333467,294.506716 186.040133,293.663822 C188.748133,292.324007 191.548133,290.938776 194.032133,289.158145 C197.448133,286.706939 199.680133,284.322523 201.053467,281.650909 C202.3708,279.091503 203.136133,277.03436 203.469467,275.174917 C203.753467,273.594657 204.9668,272.888015 206.045467,272.888015 C206.732133,272.888015 207.365467,273.167199 207.772133,273.65744 C208.073467,274.015436 208.3908,274.656623 208.212133,275.667829 C207.961467,277.067755 207.724133,278.332764 207.393467,279.607124 C206.493467,283.066865 203.2268,286.370315 200.608133,289.028571 C200.4908,289.147458 200.373467,289.265009 200.2588,289.38256 C200.4908,289.326456 200.776133,289.25833 200.844133,289.21692 C201.6988,288.634508 202.472133,287.79295 203.0948,287.117032 C203.276133,286.917996 203.448133,286.730983 203.612133,286.562672 C204.209467,285.956215 204.4428,285.663673 204.868133,285.134694 L205.1988,284.727273 C206.157467,283.573135 206.5268,282.793024 207.261467,281.238145 C207.553467,280.630353 207.893467,279.903673 208.349467,279.000668 C208.412133,278.877774 208.5548,278.825677 208.680133,278.876438 Z M121.396667,273.529336 C119.855333,273.528 118.479333,272.389892 118.202,270.881766 C118.044667,270.041544 118.082,269.326887 118.311333,268.689707 C118.53,268.08325 118.888667,267.558278 119.352667,267.170894 C119.915333,266.70069 120.435333,266.50967 121.047333,266.368074 C121.256667,266.318649 121.472667,266.294605 121.686,266.294605 C123.175333,266.294605 124.555333,267.466108 124.836667,268.95954 C124.967333,269.666182 124.858,270.408891 124.522,271.054085 C124.211333,272.293714 123.214,273.244809 121.979333,273.474568 C121.787333,273.510635 121.591333,273.529336 121.396667,273.529336 Z M160.618,260.758219 C160.992667,261.08282 161.320667,261.36334 161.558,261.921707 C161.706,262.267681 161.812667,262.604304 161.875333,262.918219 C162.094,263.96282 161.748667,265.052839 160.946,265.836957 C160.492667,266.484824 159.748667,266.964378 158.927333,267.11666 C158.746,267.150056 158.555333,267.168757 158.366,267.168757 C156.779333,267.168757 155.367333,266.001262 155.148667,264.514508 C155.036667,263.722375 155.104667,263.257514 155.306,262.50679 C155.456667,261.935065 155.800667,261.394063 156.355333,260.851725 C156.738,260.480371 157.418,260.150427 157.972667,260.062263 C158.172667,260.034212 158.402,260.018182 158.618,260.018182 C158.927333,260.018182 159.368667,260.051577 159.699333,260.215881 C159.93,260.333432 160.164667,260.452319 160.394,260.575213 L160.446,260.608609 L160.618,260.758219 Z M67.1361333,289.675102 C67.1081333,289.689796 67.0788,289.705826 67.0508,289.721855 C66.5761333,289.959629 66.5761333,289.959629 66.1254667,290.443191 C65.9694667,290.612839 65.8268,290.799852 65.7014667,290.998887 L65.6254667,291.117774 C65.4334667,291.41833 65.3734667,291.513173 65.2294667,292.039481 C65.1388,292.30397 65.1441333,292.48564 65.1801333,292.608534 L65.1828,292.611206 C65.1988,292.680668 65.2174667,292.75013 65.2241333,292.803562 C65.2614667,292.866345 65.2894667,292.922449 65.3054667,292.974545 C65.3988,293.085417 65.4308,293.102783 65.4934667,293.125492 C66.1828,293.40334 66.9388,293.53692 67.8054667,293.53692 C69.1988,293.53692 70.6574667,293.177588 71.8214667,292.835622 C71.2174667,291.120445 70.4281333,290.069165 69.4774667,289.707161 C69.0814667,289.557551 68.6361333,289.477403 68.1908,289.477403 C67.7721333,289.477403 67.3814667,289.550872 67.1361333,289.675102 Z M69.5868,313.523265 C71.2214667,311.076067 72.1828,308.428497 72.6054667,305.190501 C72.9588,302.493506 73.0401333,300.11577 72.8548,297.937069 C70.6668,298.486085 68.8081333,298.753247 67.1828,298.753247 C63.2814667,298.753247 60.8908,297.172987 60.0761333,294.056549 C59.9641333,293.627755 59.8934667,293.184267 59.8708,292.730093 C57.9148,294.135362 56.0214667,296.232579 54.5001333,298.683785 C52.1614667,302.453432 50.9974667,306.463525 51.1388,310.281262 C51.2948,314.583896 53.9721333,320.953024 59.2121333,320.953024 C59.7121333,320.953024 60.2294667,320.892913 60.7561333,320.771354 C63.8734667,320.063377 66.8414667,317.622857 69.5868,313.523265 Z M77.9908,296.757551 C78.0654667,297.941076 78.0708,299.927421 78.0188,300.666122 C77.2401333,311.882894 75.7174667,314.098998 72.3868,318.949314 L72.3468,319.010761 C71.0868,320.847495 69.2694667,322.28616 67.5374667,323.350798 C68.2041333,323.024861 68.8468,322.653506 69.4588,322.243414 C71.1174667,321.126679 72.5788,319.673321 73.7974667,317.922078 C74.9041333,316.319109 75.8241333,314.451651 76.5348,312.3718 C77.1628,310.516364 77.6308,308.515325 77.9694667,306.259147 C78.3241333,303.751837 78.4428,301.82026 78.3601333,299.999555 C78.3134667,298.878813 78.1881333,297.79013 77.9908,296.757551 Z M90.4961333,284.359926 C90.5294667,284.477477 90.5921333,284.712579 90.6748,284.840816 C91.0241333,284.62308 91.1308,284.494842 91.3054667,284.313173 C91.3841333,284.231688 91.3881333,284.115473 91.4641333,283.915102 C91.5428,283.468942 91.0401333,283.31666 90.8601333,283.522375 C90.8361333,283.545083 90.6961333,283.681336 90.6748,283.70538 C90.5028,283.941818 90.4774667,284.295807 90.4961333,284.359926 Z M103.497467,302.504193 C103.1908,301.658627 102.805467,300.806382 102.349467,299.96616 C101.7948,298.910872 101.097467,297.80616 100.212133,296.593247 C99.8961333,296.156438 99.5734667,295.724972 99.2428,295.312208 C100.8028,297.553692 102.180133,299.847273 103.1828,302.294471 C103.221467,302.397328 103.264133,302.500186 103.3028,302.601707 L103.497467,302.504193 Z M87.0574667,314.885788 C87.0001333,315.150278 87.0921333,315.406753 87.3268,315.645863 C87.3468,315.6659 87.5161333,315.834212 87.9014667,316.046605 C87.9641333,316.062635 88.0734667,316.098701 88.3521333,316.196215 C88.5734667,316.276364 88.8241333,316.363191 88.9281333,316.389907 C89.3814667,316.500779 89.9014667,316.556883 90.4774667,316.556883 C91.9094667,316.556883 93.4881333,316.200223 94.7014667,315.600445 C97.0108,314.462338 98.5294667,312.62961 99.0921333,310.297291 C99.1521333,310.039481 99.2014667,309.776327 99.2348,309.494471 C98.5681333,309.57462 97.8934667,309.617365 97.2374667,309.65744 C96.4614667,309.706865 95.6574667,309.756289 94.8761333,309.871169 C93.4308,310.084898 91.9014667,310.341373 90.5428,310.926456 C90.1414667,311.100111 89.7174667,311.289796 89.3268,311.519555 L89.1668,311.611725 C88.1881333,312.3718 87.3241333,313.716957 87.0574667,314.885788 Z M148.333467,305.967941 C146.029467,308.671614 142.568133,311.6518 139.9668,312.160742 C141.592133,312.617588 144.149467,310.87436 145.753467,309.343525 C146.480133,308.658256 147.701467,306.873618 148.333467,305.967941 Z M150.576133,340.204675 C149.6748,343.49744 149.393467,348.430575 151.560133,351.498924 C152.6988,353.107236 154.384133,354.002226 156.576133,354.161187 C158.2428,354.289425 159.2268,353.174026 160.5028,351.043414 C161.836133,348.816623 162.712133,346.575139 163.436133,343.542857 C164.516133,339.003785 165.204133,333.884972 165.540133,327.893878 C165.712133,324.826865 166.289467,319.451577 166.712133,315.528312 C166.805467,314.64 166.893467,313.817143 166.972133,313.093135 C163.284133,315.445492 158.9388,320.982412 156.748133,325.184861 C153.5348,331.346939 151.917467,335.278219 150.576133,340.204675 Z M159.6148,313.654174 C159.2868,314.034879 158.9668,314.419592 158.636133,314.810983 C158.221467,315.306568 157.800133,315.811503 157.3548,316.321781 C155.545467,318.440371 152.784133,322.879258 151.5788,324.932393 C150.472133,326.78115 149.4908,329.753321 148.704133,332.141744 C148.513467,332.714805 148.333467,333.259814 148.164133,333.747384 C147.349467,336.030278 146.737467,338.506865 146.336133,341.121039 C147.0948,337.768163 148.360133,334.403265 149.6628,331.280148 C151.833467,326.065158 155.4588,319.098924 159.6148,313.654174 Z M188.608133,234.921707 C188.605467,234.921707 187.6468,234.627829 187.3028,234.764082 C186.988133,234.760074 186.5548,234.919035 186.5348,234.913692 C186.276133,235.020557 186.073467,235.123414 185.8868,235.235622 C185.841467,235.261002 185.628133,235.387904 185.2588,235.711169 C185.1468,235.808683 184.553467,236.385751 184.500133,236.431169 C180.037467,241.750353 178.721467,249.7318 177.8388,256.792876 C177.0628,263.011058 176.581467,269.381521 176.1148,275.539592 C175.833467,279.286531 175.5428,283.149685 175.185467,286.963414 C175.4508,286.526605 175.7148,286.091132 175.9668,285.661002 C180.7788,277.528609 186.7428,262.621002 188.3268,257.241707 C189.6228,252.834879 190.269467,247.144341 190.693467,242.606605 C190.9228,240.182115 190.657467,238.392134 190.0188,236.766456 C189.5108,235.473395 189.053467,235.187532 188.608133,234.921707 Z M194.904133,235.505455 C194.612133,234.239109 194.1308,233.163785 193.4668,232.303525 C193.1028,231.830649 192.672133,231.428571 192.193467,231.111985 C191.941467,230.943673 191.6828,230.802078 191.417467,230.68987 C191.324133,230.649796 191.2268,230.613729 191.1308,230.58167 C193.680133,232.385009 194.701467,236.123933 194.7428,239.686531 C194.781467,243.450835 194.180133,247.205788 193.548133,250.525269 C193.5868,250.376994 193.625467,250.22872 193.664133,250.080445 C194.308133,247.627904 194.784133,245.170019 195.084133,242.768237 C195.2268,241.574026 195.300133,240.337069 195.2948,239.096104 C195.2868,237.766976 195.160133,236.591466 194.904133,235.505455 Z M76.7945333,273.353677 C72.6878667,277.417202 67.4385333,281.117388 61.2172,284.33134 C56.4692,286.782545 51.1905333,288.958575 45.0812,290.978315 L43.7332,291.425811 C42.9692,291.678278 42.2065333,291.932082 41.4398667,292.184549 C39.8518667,297.773566 38.1358667,303.774011 36.3638667,309.831896 C34.4292,316.432119 32.0185333,324.64466 26.8545333,330.543584 C24.2598667,333.509076 21.4145333,335.125403 18.4012,335.351154 C18.1438667,335.365848 17.8825333,335.376534 17.6212,335.37787 C17.1625333,335.413937 16.6798667,335.431302 16.2078667,335.431302 C14.2425333,335.431302 12.3518667,335.128074 10.5878667,334.529633 C9.0092,333.99531 7.5492,333.205848 6.25586667,332.189299 C4.97186667,331.184772 3.85186667,329.941135 2.93053333,328.4998 C1.29453333,325.932378 0.3332,322.846664 0.0678666667,319.328148 C-0.0454666667,317.762583 -0.0161333333,316.17698 0.1532,314.619429 C0.3052,313.341061 0.554533333,311.669967 1.1132,310.045625 L1.60386667,308.626998 L1.6212,310.128445 C1.64653333,312.768 1.82386667,315.159095 2.15453333,317.379206 C2.16253333,314.361618 2.8252,311.376089 4.1092,308.7539 C4.59586667,307.758724 5.45853333,307.186998 6.4772,307.186998 C7.32786667,307.186998 8.11586667,307.602434 8.5332,308.273009 C8.9452,308.938241 8.9492,309.762434 8.5412,310.594642 C6.28786667,315.20184 5.62786667,319.110412 6.5812,322.21082 C7.31186667,324.591228 9.56386667,330.132156 14.6825333,330.170894 L14.9012,330.17223 C17.3972,330.17223 20.2398667,329.86633 22.4092,327.610152 C27.1905333,322.631599 29.3598667,315.092304 31.2718667,308.441321 L31.4945333,307.671896 C32.1932,305.247406 32.8972,302.824252 33.5958667,300.402434 C34.2038667,298.30121 34.8118667,296.202657 35.4172,294.102768 C32.6958667,294.926961 30.3972,295.553455 28.2172,296.062397 C27.9985333,296.113158 27.7798667,296.137202 27.5705333,296.137202 C26.1212,296.137202 25.3198667,294.938983 25.1932,293.82492 C25.0545333,292.618686 25.6278667,291.232119 27.2278667,290.860764 C30.6958667,290.052601 34.1705333,288.970597 37.1652,288.01416 C40.5785333,276.076052 44.5038667,261.977944 47.7598667,247.806367 C48.0158667,246.685625 48.8158667,246.01505 49.8998667,246.01505 C50.7718667,246.01505 51.6638667,246.459874 52.2305333,247.171859 C52.7625333,247.841098 52.9492,248.682657 52.7518667,249.534902 C52.2198667,251.843176 51.6572,254.21557 51.0452,256.709521 C51.9572,254.351822 52.8132,252.266627 53.6732,250.324364 L54.6758667,248.052156 L54.1625333,250.483325 C53.4438667,253.900319 52.5465333,257.461581 51.2598667,262.034048 C50.2785333,265.552564 49.1545333,269.271451 47.8252,273.405774 C46.4718667,277.588186 45.2132,281.264327 43.9718667,284.643918 C43.8118667,285.084735 43.6505333,285.526887 43.4865333,285.969039 C47.5065333,284.622545 50.8212,283.349521 53.8758667,281.985662 C61.2718667,278.67954 69.1105333,273.472564 75.3785333,267.699206 C82.6825333,262.054085 87.2505333,250.206813 82.1492,242.221358 C80.6438667,239.858315 77.4385333,237.409781 74.5238667,236.395904 C72.3025333,235.621135 69.7478667,235.244438 66.7145333,235.244438 C66.0158667,235.244438 65.2998667,235.264475 64.5292,235.304549 C59.3492,235.569039 53.9612,236.617647 48.5158667,238.419651 C47.6732,238.756275 46.7678667,239.130301 45.6852,239.591154 L42.7558667,240.838798 C41.6932,241.292972 40.8092,241.676349 39.9238667,242.14121 C36.6905333,243.851043 33.5585333,246.268853 30.0638667,249.753974 C27.1705333,252.679391 24.4332,255.944104 21.9292,259.458612 L21.4892,259.183436 C22.3998667,257.508334 23.5038667,255.786479 24.9572,253.765403 C26.3185333,251.904623 27.6518667,250.270931 29.0372,248.766813 C29.1785333,248.613195 29.3198667,248.459577 29.4612,248.305959 C25.4665333,251.407703 22.3492,254.819354 20.1678667,258.472787 C19.7038667,259.252898 18.9958667,259.683028 18.1758667,259.683028 C17.2225333,259.683028 16.2425333,259.084586 15.7398667,258.193603 C15.2598667,257.346701 15.2785333,256.367555 15.7905333,255.505959 C20.1252,248.240505 28.2425333,241.466627 38.0612,236.920876 C46.5132,233.005625 54.9118667,230.721395 63.0132,230.136312 C63.8732,230.026776 64.5865333,229.954642 65.2478667,229.914568 C66.0118667,229.865143 66.9145333,229.813046 67.8105333,229.806367 L67.9572,229.806367 C68.7798667,229.806367 69.5945333,229.830412 70.3812,229.870486 C72.0892,229.950635 73.8158667,230.205774 75.5132,230.625217 C79.0038667,231.517536 82.1798667,233.1539 84.7065333,235.356646 C85.3678667,235.941729 85.9825333,236.565551 86.5318667,237.212082 C87.0758667,237.859948 87.5812,238.575941 88.0452,239.340022 C88.9278667,240.829447 89.5972,242.45646 90.0292,244.182323 C90.4465333,245.832045 90.6625333,247.583288 90.6785333,249.38262 C90.6825333,251.010968 90.5425333,252.706108 90.2452,254.565551 L90.1705333,254.968965 L90.0812,255.312267 C90.0185333,255.536683 89.9545333,255.750412 89.8865333,255.961469 C89.7585333,256.360876 89.6158667,256.769633 89.4438667,257.211785 C89.1438667,257.995904 88.7945333,258.804067 88.4025333,259.614902 C87.6598667,261.145737 86.7718667,262.653863 85.7612,264.101878 C83.3052,267.584327 80.2905333,270.698093 76.7945333,273.353677 Z" id="Combined-Shape" fill="#283C63"></path>
                <path d="M88.8054667,158.82866 C94.4508,162.580942 103.8588,162.563577 111.649467,164.167881 C92.3494667,167.810627 71.4108,160.116378 63.6774667,147.386137 C54.4001333,132.112519 53.7788,103.965729 53.7788,79.4910724 C53.7788,53.8956735 55.5001333,27.5054694 66.7241333,14.6496623 C85.1521333,-6.45876067 144.836133,-4.82106122 158.857467,19.9902189 C167.153467,34.6720742 167.996133,60.2728163 167.996133,84.0688831 C167.996133,121.659829 164.6708,153.983688 136.0148,161.876972 C131.388133,158.443948 120.492133,165.232519 111.649467,161.876972 C129.437467,156.703391 145.2988,155.61738 152.765467,142.045581 C159.444133,129.907102 160.6108,107.937083 161.9028,88.6453581 C163.460133,65.3796067 160.060133,30.5591243 149.721467,19.2261373 C133.6268,1.59348423 79.8841333,3.41018182 69.0081333,24.5666939 C61.6361333,38.9079184 60.0561333,61.4670278 60.6334667,85.5943748 C61.5654667,124.598605 64.3161333,157.539607 101.7508,159.590071 C99.8628,162.743911 92.1081333,159.270813 88.8054667,158.82866" id="Fill-21" fill="#283C63"></path>
                <path d="M115.4552,108.480223 C116.237867,111.071688 114.704533,117.001336 116.9792,119.922746 C120.2912,119.909388 123.828533,119.668942 126.1152,120.684156 C127.7952,123.727124 125.8952,126.143599 126.1152,129.839777 C122.760533,130.037477 120.225867,131.058033 116.216533,130.602523 C114.409867,132.351095 116.500533,138.006902 114.6952,139.756809 C111.369867,139.782189 108.756533,139.092913 106.317867,138.229981 C106.852533,134.898479 105.0232,133.935362 105.556533,130.602523 C103.016533,129.333506 98.7072,129.83577 96.4205333,128.314286 L96.4205333,121.446902 C99.8952,121.878367 101.161867,120.096401 104.796533,120.684156 C103.3032,111.560594 105.481867,106.115844 115.4552,108.480223 Z M113.610133,31.8957328 C114.751467,33.0284972 114.151467,44.95859 114.291467,47.0932096 C116.0968,47.3109462 113.6528,34.2146939 116.334133,35.3087199 C115.718133,47.7651206 116.1128,48.5064935 116.0528,62.0155102 C116.094133,58.1710575 115.914133,64.4199629 116.027467,63.9671243 C116.302133,75.3669017 116.038133,89.9338776 116.334133,94.6719852 C110.9168,95.4146939 111.9128,98.3962152 107.4808,100.130093 C102.6288,97.8739147 103.742133,92.0965492 103.395467,84.4356957 C102.682133,68.7453061 102.915467,48.8885343 104.755467,35.3087199 C109.382133,35.4930612 109.0488,29.8679777 113.610133,31.8957328 Z" id="Combined-Shape" fill="url(#linearGradient-2)"></path>
            </g>
        </g>
    </g>
</svg>