<?xml version="1.0" encoding="UTF-8"?>
<svg width="219px" height="359px" viewBox="0 0 219 359" version="1.1" xmlns="http://www.w3.org/2000/svg" xmlns:xlink="http://www.w3.org/1999/xlink">
    <!-- Generator: Sketch 44.1 (41455) - http://www.bohemiancoding.com/sketch -->
    <title>logo</title>
    <desc>Created with Sketch.</desc>
    <defs>
        <linearGradient x1="26.7054948%" y1="-45.3260589%" x2="61.0830757%" y2="155.335927%" id="linearGradient-1">
            <stop stop-color="#FFFB00" offset="0%"></stop>
            <stop stop-color="#009FFF" offset="100%"></stop>
        </linearGradient>
        <path d="M7,187 C8.4460987,187 9.70609319,187.52932 10.6462641,188.531679 C11.5340502,189.484455 12,190.730703 12,192.137757 L12,231.863583 C12,233.219715 11.5423215,234.444522 10.6724566,235.409359 C9.72952854,236.450579 8.4626413,237 7,237 C5.58836504,237 4.33664185,236.459959 3.37854977,235.4375 C2.47697822,234.472663 2,233.234455 2,231.863583 L2,192.137757 C2,190.713283 2.48524952,189.460334 3.40612076,188.508898 C4.36145575,187.52128 5.60352909,187 7,187 Z M60.1251606,187 C61.5020442,187 62.7231048,187.540041 63.6540124,188.5625 C64.5352178,189.530017 65,190.766885 65,192.137757 L65,231.863583 C65,233.246516 64.5190982,234.491424 63.6043102,235.461621 C62.6545964,236.468 61.452342,235.659949 60.1251606,235.659949 C58.7509637,235.659949 57.5325897,236.459959 56.5989954,235.4375 C55.71779,234.469983 55.2530078,233.234455 55.2530078,231.863583 L55.2530078,212.502519 L46.2703539,232.589891 L46.2058755,232.695755 C45.2279523,234.335978 43.7328583,235.239172 42,235.239172 C39.9810186,235.239172 38.3878636,234.151051 37.5174045,232.174475 L28.7469922,212.885774 L28.7469922,231.863583 C28.7469922,233.234455 28.28221,234.469983 27.4036912,235.4375 C26.4687537,236.459959 25.2490363,237 23.8748394,237 C22.4966125,237 21.2782385,236.459959 20.3459876,235.4375 C19.4661255,234.472663 19,233.234455 19,231.863583 L19,192.137757 C19,190.766885 19.4661255,189.530017 20.3473309,188.5625 C21.2782385,187.540041 22.4966125,187 23.8748394,187 C25.7299381,187 27.2613012,187.982258 28.1908656,189.767206 L28.2392244,189.86771 L42.1867188,220.532108 L55.8091344,189.767206 C56.7386988,187.982258 58.2727485,187 60.1251606,187 Z M104,204.28223 C104,207.462343 103.343817,210.351648 102.048719,212.87108 C100.73104,215.438756 98.8501585,217.477084 96.4658497,218.924417 C94.0895107,220.36639 91.3731254,221.099437 88.3950638,221.099437 L82.6381866,221.099437 L82.6381866,231.861967 C82.6381866,233.220852 82.1945325,234.445725 81.3590282,235.411954 C80.450467,236.45189 79.2257691,237 77.8204216,237 C76.4575799,237 75.2541349,236.46127 74.3309624,235.438756 C73.4582655,234.472527 73,233.234254 73,231.861967 L73,192.136693 C73,190.712142 73.4662353,189.457786 74.3535436,188.508979 C75.2753878,187.518628 76.4735196,187 77.8204216,187 L88.3950638,187 C91.3837518,187 94.104122,187.754489 96.4884309,189.247387 C98.8727397,190.738944 100.745651,192.836237 102.062002,195.484321 C103.345145,198.077459 104,201.035111 104,204.28223 Z M95,203.226057 C95,201.025076 94.4029386,199.287869 93.1714159,197.913389 C92,196.608865 90.6068566,196 88.7889581,196 L83,196 L83,210 L88.7889581,210 C90.6068566,210 92.0520926,209.406681 93.2128228,208.18377 C94.4162956,206.914222 95,205.292311 95,203.226057 Z M125.555239,190.431964 L140.61777,229.94176 C140.873931,230.680148 141,231.33009 141,231.921069 C141,233.254456 140.53596,234.469915 139.656161,235.438798 C138.725398,236.461285 137.507628,237 136.135624,237 C135.16865,237 134.253982,236.709201 133.421123,236.130283 C132.5829,235.551366 131.972674,234.749993 131.60922,233.750288 L129.117351,226.909142 L112.87192,226.909142 L110.299581,233.852135 C109.898575,234.794216 109.30176,235.552706 108.526572,236.110182 C107.703101,236.69982 106.789774,237 105.81207,237 C104.407879,237 103.184744,236.430463 102.268734,235.354373 C101.441241,234.380129 101,233.17271 101,231.862105 C101,231.234944 101.128751,230.548819 101.386253,229.821152 L101.401006,229.771569 L116.405868,190.399802 C117.557921,187.438209 119.761442,187 120.973847,187 C123.134451,187 124.801509,188.247621 125.555239,190.431964 Z M126,217 L121.546722,204 L117,217 L126,217 Z M157.272084,197.689002 C155.240764,199.077848 153.599565,201.006206 152.39019,203.419324 C151.168708,205.864493 150.54855,208.572742 150.54855,211.469285 C150.54855,214.403221 151.168708,217.120817 152.3875,219.543284 C153.596875,221.941712 155.240764,223.863394 157.272084,225.252239 C159.268428,226.618382 161.393915,227.28209 163.766928,227.28209 C166.71705,227.28209 169.505743,226.17502 172.28771,223.89945 L172.332103,223.860723 C173.312787,223.10487 174.341899,222.720267 175.385809,222.720267 C176.692042,222.720267 177.826084,223.250432 178.677624,224.250668 C179.447104,225.16143 179.838571,226.309898 179.838571,227.666693 C179.838571,228.996779 179.355628,230.230715 178.43548,231.229615 L178.278086,231.387196 C174.043255,235.110369 169.16136,237 163.766928,237 C159.544203,237 155.637612,235.840848 152.142665,233.557266 C148.690766,231.299057 145.937049,228.175491 143.956849,224.274705 C141.996827,220.415318 141,216.104556 141,211.469285 C141,206.872742 141.996827,202.592694 143.959539,198.747997 C145.937049,194.87392 148.688076,191.75436 152.138629,189.477455 C155.632231,187.1685 159.544203,186 163.766928,186 C166.733193,186 169.357766,186.442027 171.581456,187.315397 C173.77017,188.179419 176.000586,189.596308 178.200062,191.530008 C178.887482,192.102907 179.377152,192.746583 179.647546,193.445012 C179.884309,194.057973 180,194.749725 180,195.505577 C180,196.841005 179.515712,198.021524 178.5996,198.918932 C177.690214,199.809662 176.560208,200.277062 175.333345,200.277062 C174.142803,200.277062 173.010107,199.831029 172.061709,198.988374 C170.743369,197.75978 169.500362,196.897093 168.334035,196.389631 C167.217481,195.90487 165.677176,195.657816 163.766928,195.657816 C161.393915,195.657816 159.268428,196.322859 157.272084,197.689002 Z M217.730821,188.474057 C218.561238,189.383952 219,190.569897 219,191.905928 C219,193.23928 218.561238,194.422545 217.730821,195.33244 C216.850606,196.299957 215.675639,196.809177 214.332436,196.809177 L204.911171,196.809177 L204.911171,231.862243 C204.911171,233.234455 204.445491,234.469983 203.562584,235.43884 C202.625841,236.461299 201.40646,237 200.02961,237 C198.648721,237 197.426649,236.461299 196.491252,235.43884 C195.612382,234.469983 195.145357,233.234455 195.145357,231.862243 L195.145357,196.809177 L185.671602,196.809177 C184.328398,196.809177 183.153432,196.299957 182.269179,195.33244 C181.438762,194.422545 181,193.23928 181,191.905928 C181,190.569897 181.438762,189.383952 182.269179,188.474057 C183.153432,187.50922 184.328398,187 185.671602,187 L214.332436,187 C215.675639,187 216.850606,187.50922 217.730821,188.474057 Z" id="path-2"></path>
        <path d="M114.787431,107.555124 C115.559932,110.160477 114.046514,116.121901 116.291636,119.058966 C119.560618,119.045537 123.052005,118.803803 125.308971,119.824457 C126.96715,122.883732 125.091829,125.313156 125.308971,129.029142 C121.997877,129.227901 119.496133,130.253926 115.538876,129.795975 C113.755675,131.553917 115.819187,137.240033 114.037302,138.999317 C110.755161,139.024834 108.175771,138.331863 105.76878,137.464308 C106.296502,134.114952 104.490929,133.146674 105.017335,129.795975 C102.510326,128.520158 98.2569658,129.025113 96,127.495475 L96,120.59129 C99.4295352,121.025068 100.67975,119.233552 104.267207,119.824457 C102.79327,110.652003 104.943638,105.178076 114.787431,107.555124 Z M113.339854,31.4371747 C114.454433,32.5587909 113.868498,44.3714726 114.005216,46.4850842 C115.76823,46.7006779 113.38152,33.7333135 116,34.8165725 C115.39844,47.1503825 115.783855,47.8844591 115.725261,61.2605256 C115.765626,57.4539084 115.589845,63.6413146 115.700522,63.1929327 C115.96875,74.4805181 115.710939,88.9041318 116,93.5956089 C110.709656,94.3310081 111.682308,97.2831866 107.3542,99 C102.615936,96.7660263 103.703172,91.0455193 103.364632,83.4600608 C102.66802,67.9240896 102.895883,48.26274 104.692751,34.8165725 C109.210963,34.9990997 108.885444,29.429376 113.339854,31.4371747 Z" id="path-3"></path>
    </defs>
    <g id="Page-1" stroke="none" stroke-width="1" fill="none" fill-rule="evenodd">
        <g id="logo">
            <g id="Combined-Shape">
                <use fill="#F8E34D" xlink:href="#path-2"></use>
                <use fill-opacity="0.100000001" fill="url(#linearGradient-1)" style="mix-blend-mode: overlay;" xlink:href="#path-2"></use>
            </g>
            <path d="M208.838558,278.233266 C208.963897,278.285188 209.0319,278.426307 208.985231,278.552781 C208.87856,278.874959 208.775889,279.194474 208.674552,279.509995 C208.119863,281.232713 207.591841,282.859577 206.591801,284.441176 C206.469129,284.624898 206.382459,284.781992 206.291789,284.947075 C206.081114,285.327831 205.841104,285.760507 205.163743,286.603228 C204.471715,287.455268 203.715685,288.283344 202.924986,289.068819 L202.810315,289.184643 C201.520929,290.465365 200.666228,291.313411 198.515475,292.571502 C198.168794,292.769867 197.763444,293.042786 197.33276,293.331681 C196.562062,293.849562 195.763363,294.383418 195.083336,294.655006 C194.60065,294.848046 194.083295,295.143597 193.580608,295.425836 C193.039253,295.732038 192.479231,296.04889 191.944542,296.252581 C190.197805,296.930219 188.600407,297.701049 187.121681,298.434602 L186.29098,298.859291 C184.80692,299.654084 183.31486,300.574021 181.869468,301.464669 L180.820093,302.110356 C180.132065,302.536376 179.438703,303.006329 178.769343,303.462969 L178.170652,303.871682 C177.285283,304.470773 176.407914,305.08717 175.527879,305.706231 C174.899853,306.137576 174.271828,306.572915 173.647803,307.009585 L172.91844,307.519478 L172.607761,310.040984 C172.202411,313.411867 171.886398,317.348558 171.550385,321.516897 C171.074365,327.471858 170.582346,333.634504 169.77698,338.499119 C168.899611,343.801737 167.696896,351.064046 163.394055,355.779555 C161.54998,357.797825 158.816537,359 156.073759,359 C155.308395,359 154.552364,358.905477 153.831002,358.717762 C153.549657,358.707111 153.248312,358.677822 152.961633,358.63522 C151.625579,358.43153 150.357528,357.496948 149.24015,356.672866 L148.896136,356.419916 C147.745423,355.57187 146.761383,354.446911 145.966684,353.079653 C145.281323,351.900111 144.763969,350.555485 144.387954,348.973886 C144.067941,347.633254 143.887933,346.183455 143.851932,344.66709 C143.818597,343.315808 143.8826,341.873996 144.049273,340.385589 C144.195946,339.106198 144.430622,337.774885 144.786636,336.193286 C145.106649,334.770113 145.505332,333.392205 145.96135,332.091512 C146.917389,329.435544 148.776131,325.209958 150.229523,322.729723 C152.756292,318.418933 154.508363,315.692405 156.51111,313.644847 C156.803122,313.341308 157.079133,313.051081 157.339144,312.7755 C158.831204,311.205882 159.912581,310.06761 161.855326,308.676389 C163.6834,307.400991 165.352801,306.375881 166.964866,305.547804 C167.298213,305.268229 167.634226,304.991316 167.97024,304.715734 L168.152914,303.155436 C164.350094,306.26405 160.560607,307.796391 156.587113,307.841656 L156.456441,307.841656 C153.969674,307.841656 151.658914,307.033549 149.914844,305.557124 C148.8308,307.033549 147.786758,308.298296 146.732048,309.416598 C146.037354,310.146158 145.094649,311.086064 143.963936,311.894171 C142.843891,312.703609 141.655843,313.26276 140.442461,313.551655 C139.185077,313.856525 137.791687,313.860519 136.463633,313.560974 C135.250251,313.302699 134.042202,312.808783 132.872821,312.099193 C132.531474,311.891508 132.195461,311.730419 131.872781,311.573325 C131.263423,311.280436 130.684733,311.00086 130.138044,310.461679 C129.61669,310.146158 129.146004,309.800016 128.739321,309.429912 C127.861952,310.400438 126.881913,311.003523 125.763201,311.691811 C125.481856,311.863551 125.195178,312.040615 124.897832,312.229662 C122.493735,313.763334 119.321607,315.52466 116.113477,315.52466 C114.725421,315.52466 113.418702,315.189169 112.233321,314.526176 C108.57984,312.487936 107.915813,309.054481 108.050485,306.391856 C107.842476,306.455759 107.533131,306.54762 107.082446,306.678089 C106.675763,306.792582 106.191743,306.935032 105.978401,307.002929 C105.850396,308.339567 105.485048,309.657566 104.897024,310.926307 C104.495675,311.766365 103.582304,313.402548 102.983613,314.190685 C101.868902,316.638969 100.371508,317.819843 98.0087457,319.140505 C95.8179905,320.363981 92.9952097,321.092209 90.4591072,321.092209 C88.3830233,321.092209 85.4895731,320.615599 83.4948258,318.348374 C82.2067737,316.881267 81.7267543,315.009442 82.1121032,312.93792 C82.6441247,310.096899 84.745543,307.275848 87.3443147,305.921903 C88.79504,305.165718 90.5324435,304.577278 92.365851,304.223148 C93.4672288,304.008807 94.7566143,303.851712 96.0006646,303.69728 C97.0300395,303.568143 98.0900823,303.437674 99.0247868,303.276585 C98.9207826,303.012985 98.8261121,302.760036 98.7354417,302.516406 C98.371427,301.555198 98.058081,300.725791 97.4753908,299.780559 C96.2406743,297.776933 94.4299344,295.84653 92.6805304,293.982693 C91.7164914,292.957582 90.8057879,291.984393 89.983088,291.003216 C86.6362861,292.85374 82.7761301,294.183721 79.377326,295.28871 C79.7160064,296.513518 79.9480158,297.822198 80.0600203,299.186793 C80.1413569,300.226548 80.1586909,301.338194 80.1120224,302.493774 C80.0626871,303.47362 79.9640164,304.47876 79.7893427,305.763477 C79.466663,308.117237 78.9746431,310.214055 78.2839485,312.165759 C77.5052504,314.403695 76.4825424,316.391344 75.2478258,318.071461 C73.9144386,319.910003 72.2237036,321.479621 70.3596282,322.619224 C68.5342211,323.745515 66.3821341,324.537645 64.143377,324.909082 C63.2966761,325.043544 62.4473084,325.126086 61.6112746,325.15138 C60.6845705,325.228597 59.9685416,325.263211 59.3045148,325.263211 C56.7910798,325.263211 54.8536682,324.71471 53.017594,323.488571 C46.6186687,319.212396 45.1212748,310.637412 46.4386614,304.481423 C47.4387018,299.821829 49.4161151,295.654821 52.1575592,292.431714 C56.192389,287.685585 60.1165476,285.18538 64.1487105,284.785986 C65.6767723,283.832767 67.359507,283.385446 69.00224,283.525233 C72.5023815,283.819454 75.0784856,285.92559 76.6665498,289.783733 L76.7625537,289.898226 C76.9065595,290.087273 77.0438984,290.278982 77.1772371,290.473353 C79.5053312,289.681222 81.6147498,288.871784 83.6174974,288.003769 L84.1801868,287.76147 C84.8988825,287.453937 85.6389124,287.135753 86.3736088,286.793606 C85.1908943,284.960388 85.0708895,282.878216 86.0522625,281.059643 C87.1363063,279.050692 89.1723886,277.804584 91.3658106,277.804584 C93.1912177,277.804584 94.8446178,278.635323 96.0273323,280.147694 C98.0900823,282.790349 96.6966927,285.757845 94.8752857,287.499201 C94.7486139,287.623013 94.6152752,287.7415 94.4832699,287.858656 C96.0766676,289.102101 97.5607276,290.410782 98.8967816,291.760732 C101.087537,293.961392 102.759604,296.147407 104.011655,298.443921 L104.063657,298.542438 C104.509008,299.387822 105.314374,300.909512 105.686389,301.876045 C106.350416,301.730932 107.066445,301.451356 107.75714,301.181099 C108.317162,300.961433 108.850517,300.755079 109.350537,300.617954 C109.41854,300.45154 109.558546,300.077441 109.651883,299.815173 C109.82389,299.354539 109.897226,299.168155 109.941228,299.076294 C110.421247,297.646465 110.891933,296.215304 111.363952,294.782812 C112.017312,292.796494 112.673338,290.811507 113.342699,288.831845 C113.70538,287.766795 114.093396,286.708402 114.465411,285.683291 C115.42945,283.049955 116.337486,280.565726 116.908176,277.849848 C117.233523,276.294875 118.465573,275.598599 119.541616,275.598599 C120.241644,275.598599 120.867003,275.876843 121.263019,276.368098 C121.553697,276.722227 121.856376,277.358594 121.648368,278.35841 L121.528363,278.918892 C121.203016,280.467209 120.405651,282.420244 119.634953,284.308045 C119.154934,285.478269 118.694915,286.616541 118.350901,287.619019 C118.725583,286.841533 119.097598,286.076028 119.301606,285.660659 C119.762958,284.740722 120.429652,283.770195 120.801667,282.863571 C121.348356,281.532259 121.652368,280.865271 122.439066,278.852327 C122.485735,278.73384 122.640408,278.697894 122.760413,278.747153 C122.876417,278.793749 122.941753,278.920224 122.916419,279.042704 C122.304394,281.757251 121.45236,284.314702 120.694996,286.466103 C119.840295,288.855809 118.876256,291.262822 117.82688,293.625901 L116.160146,297.389522 C115.580123,298.703527 115.202774,299.966942 114.926763,300.889542 C114.709421,301.619101 114.550748,302.14497 114.378741,302.436527 L113.996059,303.574799 C113.364033,305.38139 112.495998,307.854969 113.94139,309.284798 C114.597416,309.93581 115.304111,310.253994 116.100144,310.253994 C117.025514,310.253994 117.968219,309.857263 119.108265,309.339382 C123.488442,307.350401 126.179218,304.597247 127.56994,300.679195 C130.324718,292.910986 132.075456,284.712764 133.767524,276.783467 C134.406217,273.799996 135.067577,270.714014 135.764938,267.695928 C136.195622,265.865374 136.624973,263.891037 137.075658,261.667745 C134.15554,262.439907 131.458098,263.128195 128.843325,263.771219 C128.629983,263.824472 128.421975,263.849767 128.217967,263.849767 C126.785909,263.849767 125.973876,262.557062 125.827203,261.354887 C125.671197,260.050201 126.233886,258.468602 127.843285,258.07187 C128.452643,257.922763 129.056667,257.768331 129.663358,257.613899 L130.408722,257.426184 C133.427511,256.584794 135.015575,255.983041 137.026323,255.224193 L138.430379,254.698325 L138.843729,252.504322 C139.854437,247.101856 140.901146,241.514337 142.209199,236.073263 C142.47721,234.958955 143.283909,234.293298 144.367953,234.293298 C145.245322,234.293298 146.138691,234.735294 146.70138,235.446215 C147.226735,236.115865 147.404075,236.950598 147.201401,237.801307 C146.549374,240.510528 146.026686,243.28232 145.518666,245.963583 C145.261322,247.325516 145.002645,248.686117 144.729301,250.050713 C144.601295,250.660454 144.479957,251.270195 144.354619,251.877273 L144.195946,252.650766 C144.773302,252.471039 145.447996,252.28998 146.104023,252.112916 C146.844053,251.913219 147.540081,251.726835 148.101437,251.543114 C149.696168,251.026565 151.14956,250.697731 152.552284,250.378216 C153.907005,250.072014 155.308395,249.752499 156.836457,249.267901 C157.691158,248.998976 158.448522,248.755346 159.167218,248.525029 C161.079295,247.911294 162.732695,247.381431 165.331467,246.601282 C165.462139,246.561343 165.599477,246.630571 165.647479,246.755714 C165.696815,246.884852 165.639479,247.027302 165.516807,247.08588 C163.388721,248.081702 161.792657,248.650172 159.940582,249.306509 C159.183218,249.574103 158.377852,249.860335 157.483149,250.193163 C157.147136,250.319638 156.803122,250.49404 156.459108,250.683086 C157.097801,250.480727 157.732493,250.275705 158.363185,250.073345 C160.745948,249.306509 163.211381,248.511716 165.49814,247.923275 C165.599477,247.904637 165.691481,247.893987 165.779485,247.893987 C166.923531,247.893987 167.928905,249.267901 168.120913,250.500696 C168.314254,251.750799 167.71423,252.722657 166.516848,253.10075 C158.101841,255.752724 150.292192,258.065214 142.649217,260.168688 C140.953148,268.293688 139.234412,276.285556 137.179662,285.772489 C135.947612,291.449205 134.57289,296.498874 132.979492,301.21172 C132.859488,301.560524 132.838153,301.697649 132.815486,301.821461 C132.783485,302.003851 132.755483,302.138313 132.583476,302.529719 C132.591477,302.817282 132.551475,303.107509 132.471472,303.391078 C132.398136,303.644028 132.482139,303.951561 132.718149,304.304359 C133.408843,305.333463 135.15558,306.366562 135.848942,306.442446 C138.270373,306.715365 140.549132,306.011101 142.357205,304.433496 C144.149277,302.86521 145.598669,300.86691 146.789384,298.322772 C147.060062,297.851487 146.982725,297.979293 147.240069,297.29633 C148.117438,295.202175 148.768131,292.956251 149.289485,291.031173 C149.750837,289.323099 150.229523,287.619019 150.709542,285.916271 C151.172228,284.276094 151.63358,282.635917 152.081598,280.989083 C152.245604,280.374017 152.422945,279.754957 152.597619,279.131902 C153.318981,276.591758 154.063011,273.965079 154.28702,271.361031 C154.425693,269.744818 155.691077,269.021915 156.883125,269.021915 C157.691158,269.021915 158.437855,269.332111 158.937875,269.877949 C159.40456,270.383848 159.617902,271.050836 159.5499,271.808352 C159.245887,275.38692 158.191178,278.989452 157.17247,282.476159 C156.915127,283.353494 156.659116,284.224173 156.42044,285.088194 C156.281768,285.583443 156.147095,286.084016 156.016424,286.588583 C155.773747,287.717536 155.537738,288.779924 155.292394,289.814354 C154.768373,292.011019 154.141681,294.21301 153.532323,296.344441 L153.398984,296.813063 C153.084305,297.902077 152.764292,299.028367 152.417611,300.129363 L152.357609,300.314415 C152.396277,300.408938 152.448279,300.514112 152.510949,300.632599 L152.578951,300.757742 C152.742958,301.07992 152.784293,301.155805 153.153641,301.527241 C154.079012,302.448509 155.485735,302.642881 156.50311,302.642881 C157.847164,302.642881 159.380559,302.306058 160.609943,301.742913 C163.550061,300.395625 166.32884,298.197628 169.102286,295.037092 C170.20233,285.401053 171.129034,275.384258 171.863731,265.259626 C172.51709,256.226671 173.25712,246.02083 177.421289,237.596285 C180.254736,231.866316 183.553536,229.055915 187.512363,229 L187.624368,229 C188.744413,229 189.711119,229.234311 190.544486,229.653674 C190.56182,229.57779 190.611155,229.515218 190.681825,229.479272 L190.681825,229.483266 C190.736493,229.459303 190.788496,229.447321 190.843164,229.448652 L191.020505,229.453978 C191.113842,229.460634 191.200512,229.469953 191.285849,229.483266 C191.452522,229.503236 191.621863,229.536519 191.785869,229.57779 C192.113882,229.660331 192.436562,229.776155 192.749908,229.919937 C193.348599,230.204838 193.908622,230.604232 194.421976,231.11013 C195.286011,231.964833 195.979372,233.137719 196.488726,234.592844 C197.218089,236.80016 197.474099,239.287051 197.296759,242.426286 C196.955411,247.95789 195.468685,253.150008 194.059294,257.499406 C193.233928,259.934377 192.329891,262.349377 191.381853,264.677843 C190.283142,267.292541 189.335103,269.481218 188.275061,271.663239 L188.096387,272.032013 C184.938926,280.802699 180.714755,288.625492 175.543879,295.260753 C175.105195,295.823898 174.65451,296.3937 174.189158,296.958176 C174.061153,298.068491 173.929147,299.180137 173.795809,300.28912 C176.202573,298.591697 178.642671,297.028736 181.058769,295.640177 C182.730837,294.680301 184.490908,293.810954 186.197643,292.970895 C188.905753,291.635589 191.705866,290.255018 194.189966,288.480379 C197.606104,286.03742 199.838195,283.661027 201.211583,280.998402 C202.52897,278.447608 203.294334,276.397387 203.627681,274.5442 C203.911693,272.969257 205.125075,272.264993 206.203785,272.264993 C206.89048,272.264993 207.523839,272.543237 207.930522,273.031829 C208.231867,273.38862 208.549213,274.02765 208.370539,275.035454 C208.119863,276.430669 207.88252,277.691422 207.55184,278.961494 C206.651803,282.409594 203.385005,285.701929 200.766232,288.351241 C200.648894,288.469728 200.531556,288.586883 200.416885,288.704039 C200.648894,288.648124 200.934239,288.580227 201.002242,288.538956 C201.856943,287.958504 202.630307,287.119777 203.252999,286.446133 C203.43434,286.247767 203.606347,286.061384 203.770354,285.893638 C204.367711,285.289223 204.601054,284.997665 205.026404,284.470465 L205.357084,284.064415 C206.31579,282.914161 206.685138,282.136675 207.419834,280.587027 C207.711846,279.98128 208.05186,279.257046 208.507878,278.357078 C208.570548,278.234598 208.71322,278.182677 208.838558,278.233266 Z M121.395052,273 C119.804606,272.998708 118.384761,271.897526 118.098591,270.438331 C117.936244,269.625369 117.974767,268.9339 118.211408,268.317393 C118.437042,267.730613 118.807138,267.222674 119.285922,266.847858 C119.866518,266.39291 120.403087,266.208087 121.034588,266.071086 C121.250591,266.023264 121.473474,266 121.693605,266 C123.230394,266 124.654366,267.133493 124.944664,268.578471 C125.079494,269.262186 124.966677,269.980798 124.61997,270.605059 C124.299405,271.804468 123.270293,272.724705 121.996285,272.947009 C121.798167,272.981905 121.595922,273 121.395052,273 Z M160.648318,259.724454 C161.031479,260.042219 161.366915,260.316832 161.609629,260.863441 C161.760985,261.20213 161.87007,261.531664 161.934157,261.838969 C162.157781,262.861573 161.804619,263.928638 160.983754,264.696245 C160.520143,265.330469 159.759275,265.799925 158.91932,265.949001 C158.733876,265.981693 158.538886,266 158.34526,266 C156.722621,266 155.278608,264.857089 155.054983,263.401644 C154.940444,262.626191 155.009986,262.171119 155.215884,261.436204 C155.369966,260.876518 155.721766,260.346908 156.289008,259.815991 C156.68035,259.452457 157.375767,259.12946 157.943009,259.043153 C158.147544,259.015692 158.382076,259 158.602974,259 C158.91932,259 159.370659,259.032692 159.708823,259.193536 C159.944719,259.308612 160.184706,259.424995 160.419239,259.545302 L160.472418,259.577994 L160.648318,259.724454 Z M67.0796463,289.194801 C67.0502418,289.209279 67.0194371,289.225074 66.9900326,289.240869 C66.4915563,289.475156 66.4915563,289.475156 66.0182838,289.951629 C65.8544587,290.118789 65.7046357,290.30306 65.5730156,290.499177 L65.4932033,290.616321 C65.2915724,290.912471 65.2285628,291.005923 65.0773396,291.524515 C64.9821251,291.785127 64.9877259,291.964133 65.0255317,292.085225 L65.0283321,292.087858 C65.0451347,292.156301 65.0647377,292.224745 65.0717388,292.277394 C65.1109448,292.339256 65.1403493,292.394538 65.1571519,292.44587 C65.2551669,292.555117 65.288772,292.572228 65.3545821,292.594603 C66.078493,292.868378 66.8724146,293 67.782554,293 C69.2457781,293 70.7776128,292.645936 72,292.308983 C71.3657028,290.618954 70.5367759,289.583087 69.538423,289.22639 C69.1225593,289.078973 68.6548876,289 68.187216,289 C67.7475486,289 67.3372858,289.072392 67.0796463,289.194801 Z M69.6084669,312.628928 C71.2563254,310.20106 72.2254168,307.574404 72.6514944,304.361984 C73.0076791,301.686293 73.0896688,299.327338 72.9028398,297.165846 C70.6971826,297.710526 68.8235164,297.975577 67.1850665,297.975577 C63.2522492,297.975577 60.8422898,296.4078 60.0210487,293.315979 C59.9081448,292.890572 59.8369079,292.450587 59.8140583,292 C57.8422733,293.394169 55.9336607,295.47482 54.4000501,297.906664 C52.0425103,301.646535 50.8691167,305.624953 51.0115906,309.412533 C51.1688496,313.681181 53.8677891,320 59.1500762,320 C59.6541112,320 60.1756194,319.940363 60.7065363,319.819765 C63.8490267,319.11738 66.8409786,316.696138 69.6084669,312.628928 Z M78.5999681,296 C78.6756822,297.201627 78.6810904,299.218354 78.6283609,299.968354 C77.8387715,311.356691 76.2947455,313.606691 72.9173577,318.531193 L72.8767966,318.59358 C71.5991218,320.458409 69.7562957,321.919078 68,323 C68.6760184,322.669078 69.3277001,322.292043 69.948285,321.875678 C71.6302187,320.741863 73.112051,319.266275 74.3478126,317.488246 C75.4700031,315.860759 76.4029084,313.964738 77.123544,311.853074 C77.7603533,309.969259 78.2349182,307.937613 78.5783356,305.646926 C78.9379773,303.101266 79.0583086,301.140145 78.9744823,299.291591 C78.927161,298.153707 78.8000696,297.048373 78.5999681,296 Z M91.0039056,283.658624 C91.0289056,283.742071 91.0759056,283.908966 91.1379056,284 C91.3999056,283.845432 91.4799056,283.754399 91.6109056,283.625434 C91.6699056,283.56759 91.6729056,283.48509 91.7299056,283.34285 C91.7889056,283.026129 91.4119056,282.918026 91.2769056,283.064059 C91.2589056,283.08018 91.1539056,283.176903 91.1379056,283.193972 C91.0089056,283.361816 90.9899056,283.613107 91.0039056,283.658624 Z M103,301.906359 C102.711689,301.094374 102.34942,300.275976 101.920715,299.469122 C101.399248,298.455745 100.743654,297.394906 99.9113131,296.230163 C99.6142275,295.810702 99.3108743,295.396372 99,295 C100.466625,297.152465 101.761517,299.354957 102.704168,301.704966 C102.74052,301.803738 102.780633,301.902511 102.816985,302 L103,301.906359 Z M87.0162931,314.343673 C86.9598714,314.605826 87.0504086,314.860034 87.2813439,315.09703 C87.3010259,315.11689 87.4676667,315.283715 87.8468731,315.494231 C87.9085433,315.510119 88.0161382,315.545867 88.2903739,315.642519 C88.5081879,315.72196 88.7548688,315.80802 88.8572151,315.8345 C89.3033402,315.944392 89.8150719,316 90.3819132,316 C91.7911436,316 93.3447086,315.646491 94.5387492,315.052014 C96.8113629,313.923964 98.3058819,312.107433 98.8596018,309.795725 C98.9186478,309.540193 98.9671967,309.279364 99,309 C98.3439337,309.07944 97.6799946,309.121808 97.0344254,309.161528 C96.2707642,309.210516 95.4795483,309.259504 94.7106386,309.373369 C93.2882869,309.585209 91.7832708,309.839417 90.4462077,310.41933 C90.0512558,310.591451 89.6339976,310.779459 89.2495428,311.007187 L89.0920869,311.098544 C88.1289816,311.851901 87.2787197,313.185171 87.0162931,314.343673 Z M148,305 C145.796972,307.588523 142.487331,310.441781 140,310.929047 C141.554104,311.366436 143.999363,309.697453 145.533068,308.231817 C146.227888,307.575734 147.395697,305.867104 148,305 Z M150.671188,339.060059 C149.773548,342.346571 149.493367,347.270339 151.651155,350.332862 C152.785156,351.938119 154.463583,352.831411 156.646601,352.99007 C158.306438,353.118064 159.286406,352.004783 160.557177,349.878216 C161.885046,347.655654 162.757457,345.418426 163.47849,342.391902 C164.554064,337.861449 165.239245,332.752356 165.573868,326.772638 C165.745163,323.711449 166.320131,318.346368 166.741065,314.430552 C166.834016,313.543927 166.921656,312.722633 167,312 C163.327113,314.347889 158.999586,319.874296 156.817896,324.068765 C153.61773,330.219142 152.007025,334.142957 150.671188,339.060059 Z M159,313 C158.678883,313.374234 158.365599,313.752407 158.041872,314.137146 C157.635907,314.624307 157.223416,315.120659 156.787428,315.622264 C155.016066,317.704844 152.312682,322.068281 151.132644,324.086519 C150.049202,325.903852 149.088463,328.825503 148.318305,331.173329 C148.13164,331.73665 147.955417,332.272396 147.789638,332.751678 C146.992067,334.995769 146.392911,337.43026 146,340 C146.742745,336.704114 147.981524,333.396411 149.256853,330.326379 C151.381966,325.200029 154.931218,318.352203 159,313 Z M188.776268,234.192802 C188.773531,234.192802 187.78961,233.900249 187.436548,234.035887 C187.113592,234.031898 186.668843,234.190143 186.648316,234.184823 C186.382835,234.291206 186.174829,234.3936 185.983245,234.505302 C185.936718,234.530568 185.717764,234.656898 185.338701,234.978707 C185.223751,235.075781 184.614787,235.650249 184.560049,235.695462 C179.979819,240.990677 178.629151,248.936158 177.723232,255.965416 C176.926789,262.155577 176.432776,268.497335 175.953815,274.627656 C175.665071,278.35771 175.366747,282.203456 175,286 C175.272323,285.565159 175.543278,285.131649 175.801916,284.703457 C180.740682,276.60771 186.861795,261.767279 188.487524,256.412224 C189.817665,252.025255 190.481367,246.360359 190.916537,241.843071 C191.151912,239.429506 190.879588,237.64759 190.224097,236.029239 C189.702714,234.742004 189.233333,234.45743 188.776268,234.192802 Z M194.624483,234.937709 C194.344002,233.667783 193.881656,232.589417 193.24385,231.726725 C192.894209,231.252512 192.480531,230.849297 192.020747,230.531815 C191.778688,230.363027 191.530225,230.221031 191.275358,230.108506 C191.185707,230.068319 191.092213,230.03215 191,230 C193.448768,231.808439 194.429812,235.557937 194.469514,239.13061 C194.506656,242.905559 193.929044,246.671132 193.321975,250 C193.359116,249.851306 193.396257,249.702612 193.433399,249.553918 C194.051994,247.094441 194.509217,244.629605 194.797383,242.221031 C194.934422,241.023443 195.004862,239.782987 194.999739,238.538513 C194.992055,237.205626 194.870385,236.026792 194.624483,234.937709 Z M77.0666818,272.28966 C72.9454523,276.329143 67.6775041,280.007436 61.434109,283.202373 C56.6692719,285.639076 51.3718864,287.802231 45.2408885,289.810021 L43.8881083,290.254869 C43.121399,290.505843 42.3560278,290.758144 41.5866424,291.009118 C39.9930112,296.565067 38.270926,302.530011 36.4926422,308.552054 C34.5511149,315.113226 32.1318997,323.277178 26.9495874,329.1412 C24.3457197,332.089147 21.4902964,333.69591 18.4662774,333.920326 C18.2080315,333.934933 17.9457715,333.945556 17.6835114,333.946884 C17.2232182,333.982737 16.73884,334 16.2651662,334 C14.2928635,334 12.3954923,333.698566 10.6252369,333.103665 C9.04097202,332.572504 7.57579465,331.787712 6.27787498,330.777178 C4.98932173,329.778594 3.86535005,328.542316 2.94074954,327.109508 C1.29894805,324.557277 0.334205691,321.489819 0.0679314482,317.992121 C-0.0458037812,316.435818 -0.0163664277,314.859596 0.153567386,313.311261 C0.306106399,312.040457 0.556323904,310.379249 1.11697168,308.764518 L1.60937832,307.354285 L1.62677312,308.846848 C1.65219629,311.470786 1.83015847,313.847734 2.16199773,316.05471 C2.1700261,313.054975 2.83504268,310.08711 4.12359592,307.480436 C4.61198838,306.491147 5.47771418,305.922805 6.49999319,305.922805 C7.35367644,305.922805 8.1444708,306.335783 8.56328406,307.00239 C8.97674507,307.663686 8.98075925,308.483003 8.57131242,309.310287 C6.30998845,313.890227 5.647648,317.775673 6.60436199,320.857737 C7.3376197,323.224062 9.59760561,328.732206 14.7344238,328.770715 L14.9538659,328.772043 C17.4587171,328.772043 20.3114642,328.467953 22.4884903,326.225124 C27.2867789,321.276027 29.463805,313.781339 31.3825853,307.169706 L31.6060415,306.404834 C32.3071858,303.994688 33.0136823,301.585871 33.7148265,299.178382 C34.3249826,297.089589 34.9351386,295.003453 35.5426185,292.915988 C32.811635,293.735305 30.5048169,294.358091 28.3170863,294.864023 C28.0976442,294.914483 27.8782021,294.938385 27.6681265,294.938385 C26.2136536,294.938385 25.4094786,293.747256 25.2823628,292.639784 C25.1432044,291.440687 25.7185708,290.062323 27.3242447,289.693166 C30.8045427,288.889784 34.291531,287.814182 37.2968172,286.863403 C40.7222547,274.995928 44.6615078,260.981232 47.9290541,246.893502 C48.1859619,245.779391 48.9887988,245.112783 50.0766428,245.112783 C50.951735,245.112783 51.8468982,245.554975 52.4155743,246.262748 C52.9494609,246.928028 53.1367895,247.764607 52.9387564,248.611809 C52.4048698,250.906427 51.8402079,253.264784 51.2260376,255.74398 C52.1412717,253.40023 53.0003072,251.327373 53.8633569,249.396601 L54.8695792,247.137836 L54.3544255,249.554621 C53.6332103,252.951399 52.7326949,256.49159 51.4414656,261.037004 C50.4566523,264.534703 49.3286664,268.231586 47.9946191,272.341448 C46.6364866,276.499115 45.3733565,280.153506 44.1276213,283.513102 C43.9670539,283.95131 43.8051484,284.390846 43.6405669,284.830382 C47.6748224,283.491856 51.0012433,282.226363 54.0667423,280.870574 C61.4889695,277.584012 69.3554332,272.407843 75.6456604,266.668644 C82.9755615,261.056923 87.5597602,249.279745 82.4403368,241.341537 C80.9296654,238.992475 77.7129655,236.558428 74.787963,235.550549 C72.5587525,234.780365 69.9950266,234.405896 66.9509367,234.405896 C66.2497924,234.405896 65.5312534,234.425814 64.7578538,234.465652 C59.5594848,234.728576 54.1523782,235.770981 48.6877349,237.562323 C47.8420801,237.896955 46.9335363,238.268768 45.8470303,238.726894 L42.9073092,239.967157 C41.8408741,240.418644 40.9537393,240.799752 40.0652665,241.261863 C36.8204673,242.961579 33.6773608,245.365085 30.1703015,248.829586 C27.266708,251.737695 24.5196677,254.983091 22.0067882,258.476806 L21.5652279,258.203258 C22.4791239,256.538067 23.5870388,254.826399 25.0455259,252.81728 C26.4116867,250.967511 27.7497482,249.343484 29.1399942,247.848265 C29.2818287,247.695556 29.4236632,247.542847 29.5654977,247.390138 C25.5566654,250.47353 22.4282776,253.864996 20.2392089,257.496813 C19.7735635,258.272309 19.0630528,258.699894 18.240145,258.699894 C17.283431,258.699894 16.2999558,258.104993 15.7955066,257.219281 C15.3138044,256.37739 15.3325373,255.404037 15.8463529,254.547539 C20.1963909,247.325071 28.3425095,240.591271 38.1959945,236.072415 C46.6779665,232.180329 55.1064161,229.909614 63.2364779,229.327992 C64.0995276,229.219104 64.8153905,229.147397 65.479069,229.10756 C66.2457782,229.058428 67.1516459,229.00664 68.0508232,229 L68.19801,229 C69.023594,229 69.8411495,229.023902 70.6306058,229.063739 C72.3446627,229.143414 74.0774523,229.397043 75.7808046,229.814005 C79.2838497,230.701045 82.4711123,232.327727 85.0067388,234.51744 C85.6704174,235.099062 86.2872637,235.719193 86.8385451,236.361898 C87.3844742,237.005931 87.8915995,237.717688 88.3572449,238.477249 C89.2430416,239.957861 89.9147485,241.575248 90.3482804,243.290899 C90.7670937,244.93086 90.9838597,246.671742 90.9999164,248.460428 C91.0039306,250.079143 90.8634341,251.764253 90.5650464,253.612695 L90.490115,254.013722 L90.4004648,254.354993 C90.337576,254.578081 90.273349,254.790545 90.2051079,255.000354 C90.076654,255.397397 89.9334814,255.803736 89.7608714,256.243272 C89.4598076,257.022751 89.1092355,257.826133 88.7158454,258.632171 C87.9705451,260.153948 87.0793961,261.653152 86.0651455,263.092599 C83.6004362,266.554444 80.5750791,269.649788 77.0666818,272.28966 Z" id="Combined-Shape" fill="#2D385F"></path>
            <path d="M88.9600177,158.757643 C94.5946091,162.508262 103.984708,162.490904 111.76055,164.094497 C92.4972742,167.735628 71.5984497,160.04479 63.8798314,147.320192 C54.6201511,132.053345 54,103.919032 54,79.4552247 C54,53.871172 55.718058,27.4926665 66.9207009,14.6425583 C85.313636,-6.45650756 144.884069,-4.8195341 158.878722,19.9807475 C167.158937,34.6560944 168,60.245488 168,84.0310062 C168,121.605289 164.680994,153.914819 136.079521,161.804604 C131.461658,158.373101 120.586391,165.158664 111.76055,161.804604 C129.514703,156.633316 145.345855,155.547787 152.798314,141.982003 C159.464273,129.848905 160.62872,107.888626 161.918261,88.6054524 C163.472631,65.3500145 160.079101,30.5449677 149.760106,19.2170045 C133.696065,1.59216785 80.05566,3.40806012 69.2003549,24.5551937 C61.8423824,38.8900609 60.2653888,61.4391701 60.8416236,85.5558216 C61.7718502,124.542761 64.5172828,157.469161 101.880719,159.518716 C99.9963111,162.671158 92.2564001,159.199599 88.9600177,158.757643" id="Fill-21" fill="#2D385F"></path>
            <g id="Combined-Shape">
                <use fill="#F8E34D" xlink:href="#path-3"></use>
                <use fill-opacity="0.100000001" fill="url(#linearGradient-1)" style="mix-blend-mode: overlay;" xlink:href="#path-3"></use>
            </g>
        </g>
    </g>
</svg>