<svg width="48" height="48" viewBox="0 0 48 48" xmlns="http://www.w3.org/2000/svg"><g id="Page-1" fill="none" fill-rule="evenodd"><g id="OnePage" fill="#000"><path d="M24 0c-3.317 0-6.43.627-9.34 1.88-2.912 1.253-5.45 2.962-7.61 5.127C4.885 9.172 3.17 11.71 1.9 14.625.634 17.538 0 20.655 0 23.975c0 3.32.634 6.438 1.902 9.352 1.27 2.913 2.984 5.452 5.147 7.617 2.16 2.165 4.698 3.882 7.61 5.152C17.57 47.366 20.682 48 24 48s6.43-.635 9.34-1.904c2.912-1.27 5.45-2.987 7.61-5.152 2.164-2.165 3.88-4.704 5.148-7.617 1.268-2.914 1.902-6.03 1.902-9.35 0-3.322-.634-6.44-1.902-9.352-1.27-2.914-2.984-5.453-5.147-7.618-2.16-2.165-4.698-3.874-7.61-5.127C30.43.627 27.318 0 24 0zm-5.854 33.937h-4.878V18.31h4.878v15.627zm-2.487-17.58c-.75 0-1.35-.235-1.806-.707-.456-.472-.683-1.05-.683-1.733 0-.684.237-1.254.708-1.71.472-.455 1.098-.683 1.878-.683.78 0 1.39.228 1.83.684.438.455.674 1.025.707 1.71 0 .682-.236 1.26-.708 1.732-.47.472-1.113.708-1.926.708zm20.194 17.58h-4.83v-8.692c0-1.01-.195-1.823-.585-2.44-.39-.62-1.025-.93-1.903-.93-.65 0-1.18.196-1.586.587-.405.39-.706.797-.9 1.22-.066.163-.107.35-.123.562-.016.212-.025.43-.025.66v9.033h-4.878V23.292c0-.977-.008-1.88-.024-2.71-.016-.83-.04-1.587-.073-2.27h4.195l.244 2.148h.097c.326-.52.878-1.074 1.66-1.66.78-.586 1.836-.88 3.17-.88 1.593 0 2.918.554 3.975 1.66 1.057 1.108 1.586 2.817 1.586 5.128v9.23z" id="linkedin"/></g></g></svg>