<?xml version="1.0" encoding="UTF-8"?>
<svg width="21px" height="37px" viewBox="0 0 21 37" version="1.1" xmlns="http://www.w3.org/2000/svg" xmlns:xlink="http://www.w3.org/1999/xlink">
    <!-- Generator: Sketch 42 (36781) - http://www.bohemiancoding.com/sketch -->
    <title>mobile</title>
    <desc>Created with Sketch.</desc>
    <defs></defs>
    <g id="Page-1" stroke="none" stroke-width="1" fill="none" fill-rule="evenodd">
        <g id="Artboard-Copy-5" transform="translate(-307.000000, -2155.000000)" fill-rule="nonzero" fill="#FFFFFF">
            <path d="M307,2186 L328,2186 L328,2188.25 C328,2190.3185 326.317,2192 324.25,2192 L310.75,2192 C308.683,2192 307,2190.3185 307,2188.25 L307,2186 Z M317.5,2190 C318.3265,2190 319,2189.328 319,2188.5 C319,2187.672 318.3265,2187 317.5,2187 C316.6735,2187 316,2187.672 316,2188.5 C316,2189.328 316.6735,2190 317.5,2190 Z M328,2161 L307,2161 L307,2158.75 C307,2156.6815 308.683,2155 310.75,2155 L324.25,2155 C326.317,2155 328,2156.6815 328,2158.75 L328,2161 Z M314.583333,2158 C314.261333,2158 314,2158.224 314,2158.5 C314,2158.776 314.261333,2159 314.583333,2159 L320.416667,2159 C320.738667,2159 321,2158.776 321,2158.5 C321,2158.224 320.738667,2158 320.416667,2158 L314.583333,2158 Z M307,2162 L328,2162 L328,2185 L307,2185 L307,2162 Z M317.5,2180 C321.089851,2180 324,2177.08985 324,2173.5 C324,2169.91015 321.089851,2167 317.5,2167 C313.910149,2167 311,2169.91015 311,2173.5 C311,2177.08985 313.910149,2180 317.5,2180 Z M317.5,2177 C314,2177 314,2175 314,2175 C314,2175 315.063965,2176 317.531982,2176 C320,2176 321,2175 321,2175 C321,2175 321,2177 317.5,2177 Z M316,2173 C315.447715,2173 315,2172.55228 315,2172 C315,2171.44772 315.447715,2171 316,2171 C316.552285,2171 317,2171.44772 317,2172 C317,2172.55228 316.552285,2173 316,2173 Z M319,2173 C318.447715,2173 318,2172.55228 318,2172 C318,2171.44772 318.447715,2171 319,2171 C319.552285,2171 320,2171.44772 320,2172 C320,2172.55228 319.552285,2173 319,2173 Z" id="mobile"></path>
        </g>
    </g>
</svg>