<svg width="36" height="36" viewBox="0 0 36 36" xmlns="http://www.w3.org/2000/svg"><g id="Page-1" fill="none" fill-rule="evenodd"><path d="M35.438.22c.442.322.622.75.542 1.287l-5.14 30.857c-.067.388-.28.69-.643.904-.187.107-.394.16-.622.16-.147 0-.308-.033-.482-.1l-9.095-3.716-4.86 5.926c-.24.308-.568.462-.983.462-.174 0-.32-.027-.442-.08-.254-.094-.458-.25-.612-.472-.153-.22-.23-.466-.23-.734v-7.01L30.218 6.428 8.754 25.01l-7.93-3.253C.327 21.57.06 21.2.02 20.652c-.027-.536.187-.93.643-1.185L34.073.18c.2-.12.414-.18.642-.18.268 0 .51.074.723.22z" id="paper-plane" fill="#000" fill-rule="nonzero"/></g></svg>