<svg width="48" height="48" viewBox="0 0 48 48" xmlns="http://www.w3.org/2000/svg"><g id="Page-1" fill="none" fill-rule="evenodd"><g id="OnePage" fill="#000"><path d="M24 0c-3.317 0-6.43.627-9.34 1.88-2.912 1.253-5.45 2.962-7.61 5.127C4.885 9.172 3.17 11.71 1.9 14.625.634 17.538 0 20.655 0 23.975c0 3.32.634 6.438 1.902 9.352 1.27 2.913 2.984 5.452 5.147 7.617 2.16 2.165 4.698 3.882 7.61 5.152C17.57 47.366 20.682 48 24 48s6.43-.635 9.34-1.904c2.912-1.27 5.45-2.987 7.61-5.152 2.164-2.165 3.88-4.704 5.148-7.617 1.268-2.914 1.902-6.03 1.902-9.35 0-3.322-.634-6.44-1.902-9.352-1.27-2.914-2.984-5.453-5.147-7.618-2.16-2.165-4.698-3.874-7.61-5.127C30.43.627 27.318 0 24 0zm9.756 19.63v.634c0 1.563-.293 3.142-.878 4.737-.585 1.596-1.447 3.037-2.585 4.322-1.14 1.286-2.537 2.336-4.195 3.15-1.66.814-3.578 1.22-5.757 1.22-1.332 0-2.608-.186-3.828-.56-1.22-.375-2.366-.888-3.44-1.54.196 0 .39.01.587.026.194.016.39.024.584.024 1.106 0 2.154-.18 3.146-.537.992-.358 1.895-.847 2.708-1.465-1.04-.033-1.96-.358-2.757-.977-.795-.618-1.356-1.4-1.68-2.344.16.032.316.056.462.073.146.016.285.024.415.024.227 0 .447-.016.658-.05.212-.03.415-.064.61-.096-1.073-.227-1.976-.773-2.707-1.635C14.366 23.772 14 22.77 14 21.632v-.05c.325.164.667.294 1.024.392.358.097.732.162 1.122.195-.618-.424-1.122-.986-1.512-1.686-.39-.7-.585-1.457-.585-2.27 0-.424.056-.84.17-1.246.113-.406.268-.79.463-1.147 1.17 1.433 2.593 2.597 4.268 3.492 1.676.896 3.505 1.392 5.49 1.49-.066-.196-.107-.383-.123-.562-.016-.18-.024-.35-.024-.513 0-1.302.463-2.417 1.39-3.345.927-.927 2.04-1.39 3.34-1.39.684 0 1.318.13 1.904.39.585.26 1.106.618 1.56 1.074.52-.098 1.033-.244 1.537-.44.504-.195.984-.423 1.44-.683-.163.553-.423 1.05-.78 1.49-.36.438-.782.82-1.27 1.146.456-.066.91-.163 1.366-.293.456-.13.895-.293 1.318-.49-.293.49-.643.937-1.05 1.344-.406.408-.837.774-1.292 1.1z" id="twitter"/></g></g></svg>